<?xml version="1.0" encoding="UTF-8" standalone="no"?>
<!-- Created with Inkscape (http://www.inkscape.org/) -->

<svg
   xmlns:dc="http://purl.org/dc/elements/1.1/"
   xmlns:cc="http://creativecommons.org/ns#"
   xmlns:rdf="http://www.w3.org/1999/02/22-rdf-syntax-ns#"
   xmlns:svg="http://www.w3.org/2000/svg"
   xmlns="http://www.w3.org/2000/svg"
   xmlns:sodipodi="http://sodipodi.sourceforge.net/DTD/sodipodi-0.dtd"
   xmlns:inkscape="http://www.inkscape.org/namespaces/inkscape"
   width="8.5in"
   height="11in"
   viewBox="0 0 765 990"
   id="svg2"
   version="1.1"
   inkscape:version="0.91 r13725"
   sodipodi:docname="safetycard_drillpress.svg">
  <defs
     id="defs4" />
  <sodipodi:namedview
     id="base"
     pagecolor="#ffffff"
     bordercolor="#666666"
     borderopacity="1.0"
     inkscape:pageopacity="0.0"
     inkscape:pageshadow="2"
     inkscape:zoom="0.55858586"
     inkscape:cx="121.12568"
     inkscape:cy="495"
     inkscape:document-units="px"
     inkscape:current-layer="g4246"
     showgrid="false"
     units="in"
     showguides="true"
     inkscape:window-width="1244"
     inkscape:window-height="755"
     inkscape:window-x="695"
     inkscape:window-y="1441"
     inkscape:window-maximized="1">
    <inkscape:grid
       type="xygrid"
       id="grid4273" />
  </sodipodi:namedview>
  <metadata
     id="metadata7">
    <rdf:RDF>
      <cc:Work
         rdf:about="">
        <dc:format>image/svg+xml</dc:format>
        <dc:type
           rdf:resource="http://purl.org/dc/dcmitype/StillImage" />
        <dc:title />
      </cc:Work>
    </rdf:RDF>
  </metadata>
  <g
     inkscape:label="Layer 1"
     inkscape:groupmode="layer"
     id="layer1"
     transform="translate(0,-62.3622)">
    <path
       inkscape:connector-curvature="0"
       id="path4166"
       d="m 52.012544,504.97488 0,-48.92224 57.514316,0 57.51433,0 0,48.92224 0,48.92224 -57.51433,0 -57.514316,0 0,-48.92224 z"
       style="fill:#fdfdfd" />
    <g
       id="g4289"
       transform="translate(0,11.586432)">
      <g
         id="g4252">
        <g
           id="g4220">
          <text
             xml:space="preserve"
             style="font-style:normal;font-weight:normal;font-size:40px;line-height:125%;font-family:sans-serif;letter-spacing:0px;word-spacing:0px;fill:#000000;fill-opacity:1;stroke:none;stroke-width:1px;stroke-linecap:butt;stroke-linejoin:miter;stroke-opacity:1"
             x="200.50633"
             y="502.10904"
             id="text4140"
             sodipodi:linespacing="125%"><tspan
               sodipodi:role="line"
               id="tspan4142"
               x="200.50633"
               y="502.10904">Hazards</tspan></text>
          <g
             id="g4176"
             transform="translate(-78.282984,18.046225)">
            <path
               style="fill:#e80000"
               d="m 117.62164,546.63502 c -0.88611,-0.43326 -1.83309,-1.67603 -1.98074,-2.59943 -0.0317,-0.19835 -0.0868,-0.34262 -0.12236,-0.32063 -0.0966,0.0597 -0.17088,-0.85097 -0.11423,-1.39986 0.0272,-0.26397 0.0792,-0.46164 0.11536,-0.43927 0.0362,0.0224 0.0917,-0.13205 0.12338,-0.34317 0.0395,-0.26368 0.34048,-0.86037 0.96129,-1.90602 18.36664,-30.9354 49.84139,-83.69508 50.11392,-84.00367 1.14096,-1.29191 3.31935,-2.15223 4.836,-1.9099 1.68918,0.2699 3.17409,1.10412 3.96504,2.22754 0.4513,0.641 51.27169,84.76688 51.59367,85.40593 0.49631,0.98506 0.31497,2.51209 -0.43096,3.62913 -0.5724,0.85717 -1.21345,1.30398 -2.39193,1.66716 l -0.60104,0.18523 -52.83643,-7e-5 -52.83643,-7e-5 -0.39454,-0.1929 z m 56.87909,-10.98272 c 19.68638,-0.0684 35.8327,-0.14864 35.8807,-0.17831 0.048,-0.0297 0.0873,-0.0947 0.0873,-0.14449 0,-0.11524 -38.99341,-65.55772 -39.18591,-65.76554 -0.1179,-0.12729 -0.16785,-0.13503 -0.28289,-0.0438 -0.21304,0.16888 -38.47363,65.89169 -38.47363,66.08877 0,0.21012 -4.62557,0.20534 41.97446,0.0434 z m -3.31011,-4.2542 c -1.18628,-0.14675 -2.1573,-0.65709 -3.01696,-1.58562 -1.5484,-1.67246 -1.89248,-3.84654 -0.90667,-5.72875 0.59795,-1.14169 1.98822,-2.23914 3.35375,-2.64741 0.8467,-0.25314 2.18665,-0.21611 3.0686,0.0848 2.06329,0.704 3.4014,2.44045 3.52316,4.57196 0.0887,1.55312 -0.36856,2.82114 -1.37548,3.81417 -1.19294,1.17648 -2.86101,1.7117 -4.6464,1.49084 z m -0.70047,-13.77549 c -0.758,-0.23203 -2.14486,-1.58619 -2.44295,-2.38534 -0.47283,-1.26762 -0.67294,-3.40029 -1.41239,-15.05192 -0.19126,-3.0138 -0.41335,-6.50543 -0.49353,-7.75917 -0.0802,-1.25375 -0.15062,-3.10806 -0.15653,-4.12069 -0.0101,-1.73784 5.3e-4,-1.86778 0.19078,-2.31551 0.81683,-1.9226 2.30384,-2.75272 4.92742,-2.75072 2.07247,0.002 3.47965,0.49335 4.55906,1.59324 1.16337,1.18546 1.37108,1.93133 1.28455,4.61275 -0.1435,4.44674 -1.1255,22.8418 -1.28859,24.13826 -0.23611,1.87685 -1.31597,3.34353 -2.86172,3.88682 -0.58554,0.2058 -1.85699,0.28976 -2.3061,0.15228 z"
               id="path4154"
               inkscape:connector-curvature="0" />
            <path
               style="fill:#000000"
               d="m 171.19062,531.3981 c -1.18628,-0.14675 -2.1573,-0.65709 -3.01696,-1.58562 -1.5484,-1.67246 -1.89248,-3.84654 -0.90667,-5.72875 0.59795,-1.14169 1.98822,-2.23914 3.35375,-2.64741 0.8467,-0.25314 2.18665,-0.21611 3.0686,0.0848 2.06329,0.704 3.4014,2.44045 3.52316,4.57196 0.0887,1.55312 -0.36856,2.82114 -1.37548,3.81417 -1.19294,1.17648 -2.86101,1.7117 -4.6464,1.49084 z m -0.70047,-13.77549 c -0.758,-0.23203 -2.14486,-1.58619 -2.44295,-2.38534 -0.47283,-1.26762 -0.67294,-3.40029 -1.41239,-15.05192 -0.19126,-3.0138 -0.41335,-6.50543 -0.49353,-7.75917 -0.0802,-1.25375 -0.15062,-3.10806 -0.15653,-4.12069 -0.0101,-1.73784 5.3e-4,-1.86778 0.19078,-2.31551 0.81683,-1.9226 2.30384,-2.75272 4.92742,-2.75072 2.07247,0.002 3.47965,0.49335 4.55906,1.59324 1.16337,1.18546 1.37108,1.93133 1.28455,4.61275 -0.1435,4.44674 -1.1255,22.8418 -1.28859,24.13826 -0.23611,1.87685 -1.31597,3.34353 -2.86172,3.88682 -0.58554,0.2058 -1.85699,0.28976 -2.3061,0.15228 z"
               id="path4152"
               inkscape:connector-curvature="0" />
          </g>
          <text
             sodipodi:linespacing="125%"
             id="text4249"
             y="538.5647"
             x="203.21141"
             style="font-style:normal;font-weight:normal;font-size:40px;line-height:125%;font-family:sans-serif;letter-spacing:0px;word-spacing:0px;fill:#000000;fill-opacity:1;stroke:none;stroke-width:1px;stroke-linecap:butt;stroke-linejoin:miter;stroke-opacity:1"
             xml:space="preserve"><tspan
               style="font-size:25px"
               y="538.5647"
               x="203.21141"
               sodipodi:role="line"
               id="tspan4187">- High RPM</tspan><tspan
               style="font-size:25px"
               y="569.8147"
               x="203.21141"
               sodipodi:role="line"
               id="tspan4204">- High torque</tspan></text>
        </g>
      </g>
    </g>
    <text
       xml:space="preserve"
       style="font-style:normal;font-weight:normal;font-size:40px;line-height:125%;font-family:sans-serif;letter-spacing:0px;word-spacing:0px;fill:#000000;fill-opacity:1;stroke:none;stroke-width:1px;stroke-linecap:butt;stroke-linejoin:miter;stroke-opacity:1"
       x="288.22784"
       y="626.28625"
       id="text4259"
       sodipodi:linespacing="125%"><tspan
         sodipodi:role="line"
         id="tspan4261"
         x="288.22784"
         y="626.28625" /></text>
    <g
       id="g4412"
       transform="translate(0,-17.902351)">
      <g
         id="g4246">
        <g
           id="g4237"
           transform="translate(0,-54.833519)">
          <text
             sodipodi:linespacing="125%"
             id="text4148"
             y="747.9408"
             x="200.50633"
             style="font-style:normal;font-weight:normal;font-size:40px;line-height:125%;font-family:sans-serif;letter-spacing:0px;word-spacing:0px;fill:#000000;fill-opacity:1;stroke:none;stroke-width:1px;stroke-linecap:butt;stroke-linejoin:miter;stroke-opacity:1"
             xml:space="preserve"><tspan
               id="tspan4152"
               y="747.9408"
               x="200.50633"
               sodipodi:role="line">Do</tspan></text>
          <path
             inkscape:connector-curvature="0"
             d="m 73.165124,760.42442 c 1.808775,4.51002 4.993167,8.25549 7.957765,12.03888 2.033781,2.13982 3.359875,4.78659 5.04478,7.16514 2.185802,2.76391 4.263287,5.58701 6.781085,8.06361 0.283119,0.20889 0.540764,0.45767 0.849357,0.62667 0.246076,0.13476 0.77682,0.26019 1.056791,0.0662 0.139152,-0.0964 0.433396,-0.50134 0.284518,-0.42073 -7.122936,3.85684 -15.971565,9.13989 -11.432811,6.43256 1.828365,-1.91687 3.001146,-4.37574 4.084483,-6.76452 1.995667,-5.19003 4.252164,-10.27271 6.278936,-15.44925 0.405787,-1.11888 0.769282,-2.25402 1.217363,-3.35664 0.736106,-1.81139 1.555753,-3.5877 2.33363,-5.38156 0.814796,-1.94072 1.653633,-3.87152 2.444389,-5.82217 2.0066,-4.94991 3.86228,-9.96281 5.69518,-14.97892 1.41273,-4.43658 2.93836,-8.81638 4.67464,-13.13499 0.66164,-1.66749 1.34187,-3.32294 2.12065,-4.9392 0,0 12.7892,-5.78886 12.7892,-5.78886 l 0,0 c -0.82876,1.61335 -1.67038,3.20273 -2.31857,4.90302 -1.77996,4.50174 -3.82052,8.90442 -5.43972,13.47379 -3.96607,9.74372 -8.00007,19.46655 -11.44132,29.41127 -1.85509,5.12159 -3.97988,10.13617 -5.78486,15.27664 -0.963243,2.48435 -2.137875,4.84572 -3.536096,7.11112 -3.80675,6.0386 -11.0867,10.85567 -15.765448,5.98377 -2.395602,-2.66946 -4.519459,-5.5635 -6.989188,-8.16581 -1.695102,-2.33254 -2.644879,-5.20674 -4.691112,-7.3331 -2.918474,-3.97887 -6.045329,-7.81905 -8.513754,-12.10878 0,0 12.300112,-6.90811 12.300112,-6.90811 z"
             id="path4179"
             style="fill:#00ff00;fill-opacity:1;stroke:none;stroke-width:18;stroke-miterlimit:4;stroke-dasharray:none" />
        </g>
        <text
           sodipodi:linespacing="125%"
           id="text4277"
           y="721.83246"
           x="203.69969"
           style="font-style:normal;font-weight:normal;font-size:40px;line-height:125%;font-family:sans-serif;letter-spacing:0px;word-spacing:0px;fill:#000000;fill-opacity:1;stroke:none;stroke-width:1px;stroke-linecap:butt;stroke-linejoin:miter;stroke-opacity:1"
           xml:space="preserve"><tspan
             id="tspan4244"
             style="font-size:16.25px"
             y="721.83246"
             x="203.69969"
             sodipodi:role="line">- <tspan
   style="font-weight:bold"
   id="tspan4230">Clamp</tspan> down workpiece securely</tspan><tspan
             style="font-size:16.25px"
             y="742.14496"
             x="203.69969"
             sodipodi:role="line"
             id="tspan4208">- Make sure the <tspan
   style="font-weight:bold"
   id="tspan4232">chuck</tspan> is tightened. </tspan><tspan
             style="font-size:16.25px"
             y="762.45746"
             x="203.69969"
             sodipodi:role="line"
             id="tspan4210">- Stay away from moving parts. </tspan><tspan
             style="font-size:16.25px"
             y="782.76996"
             x="203.69969"
             sodipodi:role="line"
             id="tspan4212">- Use <tspan
   style="font-weight:bold"
   id="tspan4234">oil</tspan> when cutting metal.</tspan><tspan
             style="font-size:16.25px"
             y="803.08246"
             x="203.69969"
             sodipodi:role="line"
             id="tspan4214">- Keep your surrounding area clear</tspan><tspan
             style="font-size:16.25px"
             y="823.39496"
             x="203.69969"
             sodipodi:role="line"
             id="tspan4216">- Drill at a safe speed.</tspan><tspan
             style="font-size:16.25px"
             y="843.70746"
             x="203.69969"
             sodipodi:role="line"
             id="tspan4218">- <tspan
   style="font-weight:bold"
   id="tspan4236">Vacuum</tspan> dust when done. </tspan></text>
      </g>
    </g>
    <g
       id="g4301">
      <g
         id="g4242">
        <text
           xml:space="preserve"
           style="font-style:normal;font-weight:normal;font-size:40px;line-height:125%;font-family:sans-serif;letter-spacing:0px;word-spacing:0px;fill:#000000;fill-opacity:1;stroke:none;stroke-width:1px;stroke-linecap:butt;stroke-linejoin:miter;stroke-opacity:1"
           x="200.50633"
           y="901.08728"
           id="text4154"
           sodipodi:linespacing="125%"><tspan
             sodipodi:role="line"
             id="tspan4156"
             x="200.50633"
             y="901.08728">Don't</tspan></text>
        <g
           id="g4189"
           transform="matrix(0.59905744,0,0,0.59905744,50.927441,336.62986)">
          <path
             inkscape:connector-curvature="0"
             d="m 47.71491,893.56584 c 1.421226,10.07156 5.73854,19.46444 10.070985,28.56977 4.275127,9.8545 9.617831,19.13548 14.977506,28.41928 3.644992,6.19613 7.423823,12.30518 11.199842,18.42041 4.057524,6.28484 7.591316,12.8861 11.567983,19.21749 2.867543,3.96102 5.374194,8.15475 7.996494,12.27511 2.13906,4.4559 5.04295,8.4572 7.49742,12.73 1.76009,3.3689 3.31225,6.8194 5.46531,9.9593 0,0 -22.660467,13.2908 -22.660467,13.2908 l 0,0 c -2.129459,-3.2224 -3.63993,-6.7555 -5.420688,-10.1765 -2.499113,-4.1988 -5.269836,-8.228 -7.540908,-12.5618 -2.702916,-4.0813 -4.877906,-8.5131 -7.766951,-12.4871 -3.835899,-6.39903 -7.175171,-13.08772 -11.336272,-19.29416 -4.016365,-6.04306 -7.841632,-12.14794 -11.132488,-18.63124 -5.167292,-9.45966 -10.43409,-18.86104 -14.712177,-28.77232 -4.393603,-9.30056 -8.549584,-18.70568 -11.59772,-28.54936 0,0 23.392131,-12.40968 23.392131,-12.40968 z"
             id="path4181"
             style="fill:#ff0000;fill-opacity:1;stroke:none;stroke-width:18;stroke-miterlimit:4;stroke-dasharray:none" />
          <path
             style="fill:#ff0000;fill-opacity:1;stroke:none;stroke-width:18;stroke-miterlimit:4;stroke-dasharray:none"
             id="path4187"
             d="m 47.71491,1036.448 c 1.42122,-10.0716 5.73854,-19.4645 10.07098,-28.5698 4.27513,-9.85451 9.61783,-19.13549 14.97751,-28.41929 3.64499,-6.19613 7.42382,-12.30518 11.19984,-18.42041 4.05752,-6.28484 7.591311,-12.8861 11.567981,-19.21749 2.867539,-3.96102 5.374199,-8.15475 7.996499,-12.27511 2.13906,-4.45592 5.04295,-8.45717 7.49742,-12.72996 1.76009,-3.36897 3.31225,-6.81941 5.46531,-9.95938 0,0 -22.660469,-13.29072 -22.660469,-13.29072 l 0,0 c -2.12946,3.22235 -3.639931,6.75545 -5.420691,10.17647 -2.499109,4.1988 -5.26984,8.22796 -7.54091,12.56177 -2.70291,4.0813 -4.8779,8.51312 -7.76695,12.48715 -3.8359,6.399 -7.175169,13.08769 -11.33627,19.29413 -4.01637,6.04306 -7.84163,12.14794 -11.132489,18.63124 -5.16729,9.45966 -10.43409,18.86104 -14.71218,28.77232 -4.3936,9.30058 -8.54958,18.70568 -11.59772,28.54938 0,0 23.39214,12.4097 23.39214,12.4097 z"
             inkscape:connector-curvature="0" />
        </g>
      </g>
      <text
         sodipodi:linespacing="125%"
         id="text4290"
         y="928.836"
         x="203.57762"
         style="font-style:normal;font-weight:normal;font-size:17.5px;line-height:125%;font-family:sans-serif;letter-spacing:0px;word-spacing:0px;fill:#000000;fill-opacity:1;stroke:none;stroke-width:1px;stroke-linecap:butt;stroke-linejoin:miter;stroke-opacity:1"
         xml:space="preserve"><tspan
           style="font-size:20px"
           y="928.836"
           x="203.57762"
           sodipodi:role="line"
           id="tspan4342">- Don’t let loose hair or sleeves near the drill,</tspan><tspan
           style="font-size:20px"
           y="953.836"
           x="203.57762"
           sodipodi:role="line"
           id="tspan4224"> as it may become entangled. </tspan><tspan
           style="font-size:20px"
           y="978.836"
           x="203.57762"
           sodipodi:role="line"
           id="tspan4222">- Don’t hold workpiece with your hand, as it may</tspan><tspan
           style="font-size:20px"
           y="1003.836"
           x="203.57762"
           sodipodi:role="line"
           id="tspan4226"> spin out from your grasp.</tspan></text>
    </g>
    <g
       id="g4314"
       transform="translate(0,-25.063291)">
      <g
         id="g4225">
        <text
           xml:space="preserve"
           style="font-style:normal;font-weight:normal;font-size:40px;line-height:125%;font-family:sans-serif;letter-spacing:0px;word-spacing:0px;fill:#000000;fill-opacity:1;stroke:none;stroke-width:1px;stroke-linecap:butt;stroke-linejoin:miter;stroke-opacity:1"
           x="201.79539"
           y="324.55029"
           id="text4158"
           sodipodi:linespacing="125%"><tspan
             sodipodi:role="line"
             x="201.79539"
             y="324.55029"
             id="tspan4162">Safety Equipment</tspan></text>
        <path
           inkscape:connector-curvature="0"
           id="path4204"
           d="m 89.241067,370.9149 c -3.826464,-0.54402 -7.04084,-1.58273 -10.785162,-3.48518 -4.685455,-2.38064 -7.025552,-4.84149 -10.838598,-11.39793 -1.94607,-3.34621 -5.420932,-10.12428 -6.641359,-12.95462 -1.600259,-3.71125 -2.337853,-4.46126 -3.787811,-3.8516 -0.904596,0.38035 -1.20243,0.87734 -2.436522,4.06572 -2.274088,5.8753 -3.080336,7.68008 -4.138373,9.2637 -1.759252,2.63317 -3.700448,3.63108 -5.956421,3.06203 -3.346275,-0.84408 -7.042506,-3.78822 -9.667078,-7.70007 -1.590104,-2.37001 -3.715868,-7.05846 -4.427352,-9.76468 -0.09288,-0.35331 -0.30882,-1.17234 -0.479857,-1.82008 -0.171032,-0.64773 -0.415622,-1.75583 -0.543537,-2.46245 -0.127909,-0.70661 -0.354113,-1.91107 -0.502669,-2.67657 -0.180173,-0.92841 -0.272727,-3.58982 -0.277988,-7.99338 -0.009,-7.55239 0.08303,-7.20957 -1.935885,-7.20957 -0.922079,0 -1.188321,-0.0956 -1.672083,-0.60057 -0.669355,-0.69865 -0.728902,-1.41835 -0.207772,-2.51117 0.292183,-0.61271 0.786447,-1.00784 2.40892,-1.92578 1.122721,-0.63519 2.450114,-1.29878 2.949762,-1.47465 0.499643,-0.17586 1.649443,-0.76956 2.555107,-1.31934 3.189117,-1.93592 4.745502,-2.66067 5.713769,-2.66067 0.762863,0 0.989981,-0.10395 1.380166,-0.6317 0.525852,-0.71125 0.694738,-0.79252 7.214971,-3.47167 2.590928,-1.0646 5.793913,-2.41163 7.117746,-2.99339 3.523942,-1.54861 5.110328,-2.11066 5.957365,-2.11066 0.414194,0 1.158759,-0.213 1.654585,-0.47335 0.751546,-0.3946 1.275509,-0.47742 3.149831,-0.49789 1.764255,-0.0193 2.547987,-0.13152 3.640144,-0.52135 1.729226,-0.61723 5.480633,-0.84386 7.025804,-0.42444 2.393484,0.64968 5.79236,2.79943 8.193048,5.18201 0.774249,0.76841 2.892089,3.34978 4.706309,5.73638 1.931234,2.54053 4.509474,5.60563 6.219725,7.39422 3.255047,3.40416 3.832763,4.32934 3.832763,6.13801 0,1.13923 -0.05356,1.25849 -1.059363,2.359 -1.891937,2.07008 -4.940571,3.22328 -6.64967,2.51534 -0.890189,-0.36873 -1.025441,-0.68868 -1.519012,-3.59339 -1.583617,-9.31969 -2.736463,-12.55628 -5.8654,-16.46697 -4.240998,-5.30059 -8.013779,-6.82081 -14.241829,-5.73868 -1.642146,0.28532 -1.894736,0.39515 -2.583853,1.12344 -0.949474,1.00345 -1.467306,1.33638 -3.085814,1.98394 -0.704053,0.28168 -1.650056,0.8464 -2.102236,1.25492 -0.587712,0.53096 -2.50709,1.46418 -6.731065,3.2727 -3.2499,1.39146 -6.085893,2.6901 -6.302208,2.88586 -0.551324,0.49895 -0.48976,1.03911 0.178324,1.56463 0.740309,0.58232 7.072008,3.77751 9.745389,4.91785 1.967953,0.83943 8.23793,3.28382 9.382583,3.65785 0.294422,0.0962 1.354348,0.47898 2.355384,0.85059 4.72488,1.75401 14.854758,5.13555 21.091421,7.0407 6.385462,1.95061 15.089844,3.99427 24.731554,5.80662 1.35435,0.25457 2.89606,0.54439 3.42602,0.64403 0.52996,0.0996 1.68624,0.30222 2.56952,0.45016 0.88326,0.14795 1.796,0.39705 2.02831,0.55356 0.67359,0.45384 1.15703,0.33695 1.8904,-0.45707 0.59042,-0.63924 2.08781,-1.30442 10.8454,-4.81783 9.40629,-3.77366 10.25973,-4.0762 11.49873,-4.0762 0.73608,0 1.81733,0.10273 2.40277,0.22828 1.29006,0.27667 1.5618,0.15753 4.47601,-1.96256 3.06535,-2.23004 4.39503,-2.37385 5.7987,-0.62716 0.63016,0.78415 0.67299,0.94775 0.67299,2.57054 0,1.15565 -0.10374,1.89144 -0.31137,2.20833 -0.32989,0.50347 -0.64174,3.4278 -0.97299,9.1241 -0.30503,5.24551 -0.552,6.7288 -1.39834,8.39828 -0.53869,1.06262 -0.9623,1.47279 -1.521,1.47279 -0.7319,0 -1.12097,-0.77026 -1.47252,-2.91522 -0.39049,-2.38255 -0.39464,-4.23298 -0.0141,-6.29219 0.49292,-2.66746 1.00161,-4.00117 2.57063,-6.73979 0.80734,-1.40917 0.97844,-1.89699 0.97844,-2.78952 0,-1.30192 -0.44017,-2.0335 -1.22352,-2.0335 -0.74376,0 -5.48271,4.63016 -5.76935,5.63692 -0.22584,0.79317 0.17011,0.57287 -7.13944,3.97222 -3.00312,1.39662 -7.50542,3.51564 -10.00511,4.70893 -2.49969,1.1933 -4.72822,2.16964 -4.95228,2.16964 -0.22407,0 -0.75861,-0.14675 -1.18787,-0.32611 -0.81227,-0.33939 -1.49195,-0.18678 -1.6799,0.37718 -0.0495,0.14856 -0.6569,0.46283 -1.34974,0.69837 -1.42619,0.48484 -1.55229,0.69815 -2.02529,3.42601 -1.19726,6.90471 -3.82181,12.09415 -8.44709,16.70224 -2.38172,2.37286 -4.27975,3.79457 -6.64709,4.97894 -1.41213,0.70649 -5.15067,1.95634 -7.49442,2.50549 -0.82438,0.19316 -1.691593,0.39628 -1.927131,0.45139 -0.235538,0.0551 -1.536356,0.24246 -2.890699,0.41633 -2.842702,0.36495 -4.926056,0.36487 -7.494414,-2.2e-4 z m 8.350918,-1.29102 c 1.354343,-0.17748 2.847875,-0.40788 3.318945,-0.51201 0.47109,-0.10413 1.34238,-0.28911 1.93622,-0.41107 2.58107,-0.5301 6.81153,-2.44712 7.98097,-3.61656 l 0.51098,-0.51098 -0.13917,-5.50196 c -0.19345,-7.64764 -0.52719,-13.14365 -0.81954,-13.4959 -0.27513,-0.33151 -21.762837,-11.11972 -27.670167,-13.8922 -16.710766,-7.84284 -30.982764,-12.53628 -44.431161,-14.61148 -0.883267,-0.1363 -2.098651,-0.343 -2.70085,-0.45934 -0.602199,-0.11634 -1.889673,-0.22847 -2.861049,-0.24918 -1.724999,-0.0368 -1.779968,-0.0222 -2.359493,0.62642 -0.55522,0.6214 -0.603435,0.83191 -0.750291,3.27613 -0.595934,9.91842 1.968863,20.99187 6.369058,27.4982 2.647458,3.91465 6.694514,6.76896 9.597549,6.76896 2.730534,0 4.46814,-1.7232 5.829751,-5.78141 0.296356,-0.88326 0.649223,-2.1359 0.784148,-2.78364 0.134925,-0.64772 0.33002,-1.56311 0.433545,-2.03419 1.073379,-4.88421 2.074648,-7.17128 3.804522,-8.69012 0.682051,-0.59885 0.872865,-0.66016 1.748014,-0.5616 0.848164,0.0955 1.122597,0.26308 2.008569,1.22644 1.452004,1.57882 3.041554,4.99406 4.980965,10.70185 2.5359,7.46332 4.270416,11.0164 7.111358,14.56729 3.307879,4.1345 8.575475,6.93525 15.253199,8.11003 4.173694,0.73426 6.447382,0.81024 10.063928,0.33632 z m 17.670035,-7.86421 c 3.67976,-3.76301 6.97573,-10.34474 8.05013,-16.07532 0.47444,-2.53055 -0.16875,-2.75829 -4.15719,-1.47201 -1.43705,0.46345 -3.14278,1.00155 -3.79051,1.19577 -1.34956,0.40466 -1.69054,0.63262 -2.26441,1.51386 -0.3754,0.57646 -0.42957,1.28397 -0.60724,7.93132 -0.10729,4.01412 -0.12954,7.55949 -0.0494,7.87859 0.1133,0.45143 0.27379,0.5802 0.72311,0.5802 0.43453,0 0.95326,-0.38429 2.09556,-1.55241 z m -0.81509,-21.91846 c 1.36333,-0.4594 4.04249,-1.80126 6.21714,-3.11387 1.42499,-0.86011 1.76654,-1.16554 1.76654,-1.57968 0,-0.68889 -0.38931,-0.85966 -2.89634,-1.27053 -2.47601,-0.40577 -2.99286,-0.50292 -8.04389,-1.51199 -3.37447,-0.67413 -9.96257,-2.25814 -14.64784,-3.52183 -2.187996,-0.59015 -13.531349,-3.81764 -14.239382,-4.0515 -0.294423,-0.0972 -0.872563,-0.27358 -1.284755,-0.39186 -0.412196,-0.11828 -1.162887,-0.34115 -1.668206,-0.49528 -0.818801,-0.24973 -0.958591,-0.23973 -1.28476,0.0919 -0.345529,0.35135 -0.339547,0.39385 0.10708,0.76032 0.260185,0.2135 1.850071,0.94951 3.53308,1.63559 1.683003,0.68608 8.166917,3.79203 14.408693,6.90211 11.13593,5.54868 12.8413,6.35528 14.13232,6.68429 1.10748,0.28224 2.83509,0.22124 3.90032,-0.13771 z M 62.978619,318.67299 c 0.205245,-0.53487 -0.347295,-0.85858 -4.398588,-2.57693 -4.713285,-1.99912 -5.814954,-2.54339 -9.701726,-4.79304 -1.648771,-0.9543 -3.219355,-1.73543 -3.490184,-1.73584 -0.270829,-4.3e-4 -0.793704,0.15506 -1.161948,0.34548 -0.482699,0.24962 -0.972686,0.31102 -1.755909,0.22006 -0.960371,-0.11154 -1.272632,-0.0337 -2.692317,0.67087 -1.449255,0.71928 -1.605945,0.85798 -1.605945,1.42158 0,0.7204 0.246109,0.824 3.85427,1.6224 5.321234,1.17747 10.597744,2.54108 16.059451,4.15024 3.454023,1.01765 4.695724,1.18899 4.892896,0.67518 z"
           style="fill:#010101" />
      </g>
      <text
         xml:space="preserve"
         style="font-style:normal;font-weight:normal;font-size:40px;line-height:125%;font-family:sans-serif;letter-spacing:0px;word-spacing:0px;fill:#000000;fill-opacity:1;stroke:none;stroke-width:1px;stroke-linecap:butt;stroke-linejoin:miter;stroke-opacity:1"
         x="203.21141"
         y="372.07285"
         id="text4294"
         sodipodi:linespacing="125%"><tspan
           sodipodi:role="line"
           x="203.21141"
           y="372.07285"
           style="font-size:25px"
           id="tspan4184">- Safety Glasses </tspan><tspan
           sodipodi:role="line"
           x="203.21141"
           y="403.32285"
           style="font-size:25px"
           id="tspan4198">- Tie back long hair</tspan><tspan
           sodipodi:role="line"
           x="203.21141"
           y="434.57285"
           style="font-size:25px"
           id="tspan4200">- NO GLOVES, jewelry, etc. </tspan><tspan
           sodipodi:role="line"
           x="203.21141"
           y="465.82285"
           style="font-size:25px"
           id="tspan4202">  (to avoid entanglement)</tspan></text>
    </g>
    <flowRoot
       xml:space="preserve"
       id="flowRoot4188"
       style="fill:black;stroke:none;stroke-opacity:1;stroke-width:1px;stroke-linejoin:miter;stroke-linecap:butt;fill-opacity:1;font-family:sans-serif;font-style:normal;font-weight:normal;font-size:17.5px;line-height:125%;letter-spacing:0px;word-spacing:0px"><flowRegion
         id="flowRegion4190"><rect
           id="rect4192"
           width="59.077759"
           height="73.399635"
           x="209.4575"
           y="452.92947" /></flowRegion><flowPara
         id="flowPara4194" /></flowRoot>    <text
       xml:space="preserve"
       style="font-style:normal;font-weight:normal;font-size:40px;line-height:125%;font-family:sans-serif;letter-spacing:0px;word-spacing:0px;fill:#000000;fill-opacity:1;stroke:none;stroke-width:1px;stroke-linecap:butt;stroke-linejoin:miter;stroke-opacity:1"
       x="159.57504"
       y="188.1669"
       id="text4136"
       sodipodi:linespacing="125%"><tspan
         sodipodi:role="line"
         id="tspan4138"
         x="159.57504"
         y="188.1669"
         style="font-style:normal;font-variant:normal;font-weight:normal;font-stretch:condensed;font-size:80px;font-family:Impact;-inkscape-font-specification:'Impact Condensed'">Drill Press</tspan></text>
    <path
       style="fill:#000000"
       d="m 641.85716,385.47389 c -4.87266,-1.01527 -8.68213,-2.14905 -9.1017,-2.70886 -0.82502,-1.10076 -29.13258,-6.80567 -30.2728,-6.10098 -0.38433,0.23754 -4.0481,-0.31946 -8.1417,-1.23777 -4.09359,-0.9183 -7.59989,-1.66965 -7.79178,-1.66965 -0.19189,0 -0.34889,-1.03021 -0.34889,-2.28936 0,-1.78398 0.34353,-2.44589 1.55617,-2.99841 1.27617,-0.58146 1.71484,-1.53889 2.43796,-5.32108 l 0.88178,-4.61203 32.40147,-15.79394 c 17.82081,-8.68666 32.83666,-15.79394 33.36854,-15.79394 0.70537,0 0.9151,-0.60336 0.775,-2.22955 -0.12219,-1.41815 0.21459,-2.67892 0.92537,-3.46433 0.99773,-1.10248 1.11746,-3.09253 1.11746,-18.57434 0,-9.9972 -0.2508,-17.33956 -0.59228,-17.33956 -0.32574,0 -2.1542,0.58109 -4.06326,1.2913 l -3.47098,1.2913 -32.18103,-5.06507 -32.18102,-5.06507 0,-5.433 0,-5.43301 21.45402,-6.68275 c 11.7997,-3.67551 22.33167,-6.69723 23.40438,-6.71495 1.07269,-0.0177 6.19241,0.69356 11.37713,1.58059 12.00594,2.05407 11.70218,2.06086 11.70218,-0.26145 0,-1.51192 0.38751,-2.02186 1.95037,-2.56668 l 1.95036,-0.6799 0,-22.4498 0,-22.4498 -2.60048,-1.32667 c -2.4953,-1.27302 -2.60049,-1.45449 -2.60049,-4.48691 0,-2.84769 0.22504,-3.33187 2.27543,-4.89578 l 2.27542,-1.73555 0,-5.4358 0,-5.43581 -2.43796,-0.36036 c -4.78689,-0.70755 -8.37202,-0.65767 -14.08918,0.19606 -6.90261,1.03074 -13.21036,0.58113 -18.23806,-1.29997 l -3.59197,-1.34393 0,-19.09351 c 0,-12.05524 -0.24017,-19.24194 -0.65153,-19.49618 -0.36924,-0.2282 -0.48016,-1.47436 -0.25602,-2.8761 0.45033,-2.81618 0.30258,-2.90047 -6.4823,-3.6979 -4.51592,-0.53076 -5.61259,-1.47718 -5.61259,-4.84367 0,-2.01268 -0.41039,-2.9147 -1.95036,-4.28683 -2.40655,-2.14423 -2.53265,-3.95242 -0.31445,-4.50915 1.60888,-0.4038 1.62768,-0.4819 1.13771,-4.72577 -0.86873,-7.52444 -0.65026,-10.30316 0.93463,-11.88805 1.28086,-1.28085 2.58629,-1.50965 12.99795,-2.27809 21.79151,-1.60834 36.29611,-2.86968 59.68309,-5.190102 23.92601,-2.37391 31.73559,-2.55064 36.73187,-0.83121 3.1573,1.08656 4.24694,1.98256 3.12916,2.57306 -0.46956,0.24805 -15.48147,2.171642 -33.35982,4.274632 -17.87834,2.10298 -31.92097,3.90713 -31.20584,4.00921 0.71514,0.10208 15.78171,-1.28324 33.48127,-3.07848 29.90565,-3.0333 32.23848,-3.18703 32.99367,-2.17424 0.48512,0.65058 0.81265,3.10393 0.81265,6.08695 0,3.64876 0.26313,5.2155 0.97519,5.80644 1.3203,1.09576 1.22598,2.17199 -0.31235,3.56417 -0.70814,0.64086 -1.46507,2.22211 -1.68207,3.51389 -0.72458,4.31339 -0.84273,4.46324 -3.87808,4.91842 -3.29388,0.49395 -3.93319,1.65608 -0.91104,1.65608 3.83068,0 4.50811,0.86313 4.50811,5.74394 0,2.41888 0.30712,4.70508 0.6825,5.08046 0.81009,0.81009 0.42688,30.80549 -0.4741,37.10941 -0.47226,3.30433 -0.99396,4.48789 -2.83162,6.42408 -8.37284,8.82173 -21.33764,11.73642 -31.63977,7.11309 -2.21399,-0.99357 -4.52508,-2.35861 -5.13575,-3.03339 -1.80623,-1.99585 -2.20904,-1.45789 -2.20904,2.9502 l 0,4.17708 2.76301,1.52091 c 2.70173,1.48717 2.76734,1.60362 2.95799,5.24968 0.11997,2.2944 -0.0676,3.72877 -0.48759,3.72877 -0.44522,0 -0.68256,3.2703 -0.68256,9.40471 0,7.5416 0.22088,9.86791 1.115,11.74289 1.0803,2.26542 1.07013,2.42291 -0.32687,5.0605 -1.29491,2.44485 -1.44168,3.66816 -1.44006,12.00264 0.002,9.22185 0.0117,9.2841 1.57731,9.87933 0.91253,0.34695 1.66484,1.22926 1.78783,2.0968 0.16103,1.13589 0.6836,1.5383 2.1627,1.6654 6.50294,0.55879 7.4762,0.85912 7.48635,2.3102 0.015,2.15561 0.72248,2.80882 3.5207,3.25096 3.83946,0.60667 4.51976,1.65334 4.6166,7.10277 0.0474,2.66601 0.5638,5.98111 1.18616,7.61431 0.60625,1.5909 1.20734,5.10156 1.33576,7.80146 l 0.2335,4.90891 9.60779,1.75897 c 5.38532,0.98593 9.8424,2.1288 10.14163,2.60048 0.83855,1.32184 0.62601,2.66025 -0.69546,4.3796 l -1.2203,1.58772 -9.65478,-1.47329 c -5.31014,-0.81031 -10.60829,-1.67106 -11.77368,-1.91278 l -2.1189,-0.43949 -0.24733,-6.18787 c -0.24798,-6.20434 -1.27871,-10.00126 -3.13228,-11.53837 -0.84561,-0.70124 -1.05144,-0.52856 -1.39045,1.1665 -0.46307,2.31532 -2.81707,3.55203 -8.09334,4.25195 l -3.34182,0.4433 -0.29816,19.90987 c -0.16399,10.95042 -0.39147,21.5189 -0.5055,23.48552 l -0.20734,3.57567 13.32749,2.70047 c 7.33012,1.48526 13.51283,2.72861 13.73935,2.76302 0.22652,0.0344 0.53519,1.99952 0.68594,4.36693 0.1817,2.85365 0.6091,4.55179 1.26808,5.03844 0.54669,0.40374 1.17073,1.83299 1.38675,3.17611 0.35057,2.17979 0.20506,2.53913 -1.35488,3.34594 -0.96119,0.49713 -15.33725,8.68682 -31.9468,18.19931 -16.60955,9.51248 -30.35963,17.25286 -30.55572,17.20083 -0.1961,-0.052 -4.12759,-0.88034 -8.73665,-1.8407 z m 16.36585,-3.90877 c 2.30752,-1.28884 3.93163,-2.60624 3.76106,-3.05077 -0.3842,-1.00119 41.59723,-25.17745 43.8386,-25.24576 0.89392,-0.0272 2.83066,-0.68113 4.30388,-1.45307 2.28119,-1.19531 2.63164,-1.64909 2.36216,-3.0587 -0.17402,-0.91035 -0.5017,-1.64984 -0.7282,-1.64333 -0.33976,0.01 -55.835,31.91663 -58.43278,33.59579 -0.80923,0.52307 -0.41047,3.68906 0.41732,3.31335 0.22917,-0.10401 2.24425,-1.20989 4.47796,-2.45751 z m -7.36813,-1.87476 c -0.33968,-0.31212 -11.44214,-2.66794 -24.67211,-5.23516 -13.22998,-2.56722 -26.20681,-5.09112 -28.83742,-5.60866 -2.63061,-0.51755 -5.40988,-0.9212 -6.17615,-0.897 -1.35828,0.0429 -1.36062,0.0587 -0.093,0.63333 0.99172,0.4495 46.57359,9.64614 55.5854,11.21496 3.0027,0.52274 4.82823,0.47595 4.19328,-0.10747 z m 30.72667,-18.55207 28.74379,-16.71549 -0.39435,-2.07371 c -0.2169,-1.14055 -0.46105,-2.15805 -0.54256,-2.26114 -0.16818,-0.21266 -56.90639,29.69514 -57.74441,30.43819 -0.6164,0.54655 0.14223,7.88566 0.78014,7.54713 0.22747,-0.12071 13.34831,-7.74146 29.15739,-16.93498 z m -32.05737,8.8195 c 0.18635,-0.30153 -10.10893,-2.66636 -22.87842,-5.25518 -12.76948,-2.58883 -24.80096,-5.10611 -26.73661,-5.59395 -2.7032,-0.68129 -3.83397,-0.713 -4.87592,-0.13676 -1.3378,0.73987 -1.33858,0.75426 -0.0563,1.04152 2.61611,0.58606 52.68366,10.34949 53.43414,10.41994 0.42585,0.0399 0.92675,-0.17404 1.11311,-0.47557 z m 15.79029,-12.19339 c 9.22832,-4.8625 17.02243,-9.07029 17.32025,-9.35065 0.29783,-0.28035 -1.40373,-0.84848 -3.78122,-1.2625 -3.31803,-0.57782 -4.82213,-0.57218 -6.47148,0.0243 -1.80432,0.65246 -4.37657,0.44796 -16.04748,-1.27583 -7.6443,-1.12905 -14.11815,-2.05188 -14.38632,-2.05072 -1.12714,0.005 -0.36325,-1.38267 1.13771,-2.06655 0.89392,-0.4073 1.62531,-0.92658 1.62531,-1.15398 0,-0.22738 -2.05077,-0.7651 -4.55727,-1.19492 l -4.55727,-0.7815 -18.35952,9.19741 c -10.09774,5.05859 -18.06697,9.29086 -17.7094,9.40506 0.35757,0.11421 8.5491,1.69978 18.20341,3.52351 9.6543,1.82372 20.33255,3.85206 23.72944,4.50741 3.39689,0.65535 6.37841,1.22041 6.62562,1.25572 0.2472,0.0353 7.99991,-3.91422 17.22822,-8.77671 z m -17.67768,7.20545 c -0.35757,-0.12791 -2.33231,-0.56439 -4.38833,-0.96996 -5.32455,-1.0503 -4.95389,-3.24569 0.54799,-3.24569 1.49305,0 5.82402,-1.79427 13.11179,-5.43208 5.98527,-2.98764 11.32115,-5.30489 11.8575,-5.14946 0.53635,0.15543 1.41401,0.43219 1.95036,0.615 0.5602,0.19095 -3.40509,2.53379 -9.31812,5.50551 -8.33118,4.18699 -10.15321,5.34193 -9.55831,6.05873 1.16384,1.40235 -2.03352,3.39395 -4.20288,2.61795 z M 608.30443,357.439 c -1.60905,-0.31473 -3.36438,-0.74241 -3.90073,-0.95038 -1.65165,-0.64044 1.18159,-2.22664 3.85006,-2.15548 1.66234,0.0443 5.44727,-1.44235 13.26411,-5.21004 6.0159,-2.89964 11.15283,-5.27206 11.4154,-5.27206 0.26256,0 1.01668,0.39434 1.67583,0.87632 1.07994,0.78967 0.18736,1.36649 -9.02673,5.83342 -6.66842,3.23281 -10.06599,5.21468 -9.76754,5.69759 1.07483,1.73911 -2.10209,2.23852 -7.5104,1.18063 z m 69.56301,-14.91101 c 2.32419,-0.36471 5.61543,-1.15168 7.31387,-1.74882 2.72764,-0.959 3.08808,-1.30649 3.08808,-2.97721 0,-1.5395 -0.21172,-1.80772 -1.13772,-1.44132 -7.94588,3.14399 -20.45393,3.84879 -29.09294,1.6393 -2.79614,-0.71513 -5.20372,-1.30024 -5.35018,-1.30024 -0.14646,0 -0.17279,0.64034 -0.0585,1.42296 0.15585,1.06747 1.06815,1.7196 3.65168,2.61027 6.76744,2.33308 14.21188,2.95215 21.58575,1.79506 z m 3.08808,-8.3677 c 1.25967,-0.0947 1.13093,-9.16278 -0.13009,-9.16278 -0.69072,0 -0.99486,0.99221 -1.13771,3.71154 -0.17495,3.3302 -0.36197,3.75772 -1.82028,4.16098 -2.10155,0.58115 -12.24064,0.69891 -14.87153,0.17273 -2.01612,-0.40322 -2.03163,-0.43743 -2.03163,-4.48129 0,-3.02247 -0.25188,-4.17162 -0.97518,-4.44919 -0.81341,-0.31213 -0.97519,0.43467 -0.97519,4.50171 0,3.30216 0.26229,4.97586 0.81265,5.18558 3.06473,1.16782 9.03362,1.26972 21.12896,0.36072 z m -25.54786,-0.16544 c 1.84951,-0.84269 2.19624,-1.846 0.63797,-1.846 -1.38142,0 -3.53293,1.20168 -3.53293,1.97323 0,0.83027 0.87819,0.79167 2.89496,-0.12723 z m 31.56149,0.10436 c -0.53636,-0.34662 -1.41402,-0.6302 -1.95037,-0.6302 -0.86683,0 -0.86683,0.07 0,0.6302 0.53635,0.34662 1.41401,0.63021 1.95037,0.63021 0.86682,0 0.86682,-0.07 0,-0.63021 z m -17.03008,-5.03844 c -0.1661,-2.58862 -0.40845,-3.08808 -1.49839,-3.08808 -1.08994,0 -1.3323,0.49946 -1.49839,3.08808 -0.18902,2.94573 -0.11996,3.08808 1.49839,3.08808 1.61835,0 1.68741,-0.14235 1.49839,-3.08808 z m 6.62813,-0.2167 c 0,-4.29595 -1.54047,-4.06993 -1.82345,0.26752 -0.15651,2.3989 0.0143,3.03726 0.81264,3.03726 0.78177,0 1.01081,-0.74885 1.01081,-3.30478 z m -9.75183,-24.97551 c 0,-11.48549 -0.23246,-17.87835 -0.65012,-17.87835 -0.41765,0 -0.65012,6.39286 -0.65012,17.87835 0,11.48548 0.23247,17.87834 0.65012,17.87834 0.41766,0 0.65012,-6.39286 0.65012,-17.87834 z m 9.75183,-1.04474 c 0,-16.98828 -0.10514,-18.88274 -1.02836,-18.52847 -0.56559,0.21704 -1.1507,0.39462 -1.30024,0.39462 -0.14953,0 -0.27189,8.33781 -0.27189,18.52846 0,18.09506 0.0304,18.52847 1.30025,18.52847 1.27046,0 1.30024,-0.43341 1.30024,-18.92308 z m -13.65256,-0.18595 c 0,-15.80819 -0.14003,-18.51265 -0.97518,-18.83313 -0.85267,-0.3272 -0.97518,1.9373 -0.97518,18.02551 0,10.11983 0.19504,18.59474 0.43341,18.83311 0.23838,0.23838 0.67721,0.43342 0.97519,0.43342 0.29797,0 0.54176,-8.30652 0.54176,-18.45891 z m 19.36868,15.67638 c 1.39857,-1.12029 -0.14369,-1.9097 -2.04155,-1.04497 -2.16999,0.98871 -2.39089,2.81926 -0.26144,2.16644 0.80453,-0.24664 1.84087,-0.7513 2.30299,-1.12147 z m -0.80296,-3.99059 c 0.69352,-0.50712 1.08257,-1.10041 0.86455,-1.31844 -0.56555,-0.56554 -3.82735,0.77609 -3.82735,1.57425 0,0.95117 1.48784,0.82271 2.9628,-0.25581 z m -0.16749,-4.08372 c 1.55249,-0.82452 1.80047,-1.165 0.97697,-1.34135 -1.29706,-0.27775 -3.77228,0.91588 -3.77228,1.81911 0,0.86403 0.39646,0.79627 2.79531,-0.47776 z m -0.35735,-3.20548 c 1.45653,-0.39033 2.08926,-2.19072 0.76991,-2.19072 -1.11159,0 -3.20787,1.28947 -3.20787,1.97323 0,0.72353 0.41242,0.76032 2.43796,0.21749 z m 1.56705,-5.18071 c 0.31188,-0.19275 0.40954,-0.60533 0.21702,-0.91683 -0.51832,-0.83865 -4.22203,0.63414 -4.22203,1.67889 0,0.69958 0.37608,0.75252 1.71898,0.24195 0.94543,-0.35945 1.97415,-0.81126 2.28603,-1.00401 z m 0.0309,-4.37542 c 0.65803,-1.05825 -0.27275,-1.24887 -2.31213,-0.47349 -2.33356,0.88721 -2.28625,2.26993 0.0576,1.68167 0.97972,-0.24589 1.99428,-0.78957 2.25459,-1.20818 z m 40.35481,-2.3638 c 0.4,-1.52959 0.3732,-1.5387 -8.85587,-3.0098 -6.03595,-0.96212 -7.13143,-0.99168 -7.62835,-0.20585 -1.08493,1.71567 -0.18505,2.18254 6.27333,3.25477 8.96718,1.48873 9.81219,1.4855 10.21089,-0.0391 z m -40.51321,-1.71769 c 1.13064,-1.07536 0.20402,-1.18915 -2.20989,-0.27138 -2.08119,0.79127 -2.26401,2.23291 -0.20485,1.61543 0.80452,-0.24126 1.89115,-0.84608 2.41474,-1.34405 z m -1.18433,-3.22878 c 1.08817,-0.56271 1.85247,-1.14914 1.69844,-1.30317 -0.45697,-0.45698 -4.39162,1.10176 -4.39162,1.73978 0,0.80984 0.41196,0.74306 2.69318,-0.43661 z m 0.20177,-3.63209 c 1.6528,-0.75306 1.99422,-1.29097 1.27557,-2.00963 -0.66026,-0.66021 -4.17056,0.89904 -4.17056,1.85254 0,1.10909 0.71982,1.14816 2.89496,0.15709 z m -13.24095,-7.08053 c 21.21086,-8.19995 19.44766,-7.26086 19.44766,-10.35787 0,-1.43606 -0.15566,-2.61101 -0.34594,-2.61101 -0.19026,0 -1.43362,0.46429 -2.76302,1.03177 -1.32939,0.56747 -5.4889,2.15972 -9.24335,3.53833 -3.75445,1.37861 -10.48321,3.94787 -14.9528,5.70949 l -8.12652,3.20292 -0.19991,2.68551 c -0.10995,1.47703 0.0615,2.68551 0.38102,2.68551 0.31951,0 7.43078,-2.64809 15.80283,-5.88465 z m 25.57068,0.28906 c 1.4829,-0.56904 1.31806,-4.55804 -0.27189,-6.57932 -1.74325,-2.21619 -1.74117,-7.1609 0.005,-10.41772 1.37954,-2.57391 0.93958,-3.31305 -1.26858,-2.13129 -1.25375,0.67099 -1.33628,1.29599 -1.33628,10.11905 0,9.84673 0.0752,10.08265 2.87237,9.00928 z m -36.35367,-4.15624 c 2.70036,-1.0727 5.18603,-1.95036 5.52369,-1.95036 0.33766,0 2.21291,-0.73139 4.16721,-1.62531 1.9543,-0.89391 3.95234,-1.6253 4.44009,-1.6253 0.48775,0 1.16474,-0.25659 1.50443,-0.57021 0.33969,-0.31361 2.21722,-1.08967 4.17229,-1.72456 1.95507,-0.63489 5.02689,-1.811 6.82628,-2.61355 2.99059,-1.33387 3.13199,-1.49142 1.6463,-1.83412 -0.89392,-0.20619 -13.9126,-2.17454 -28.93041,-4.37411 l -27.30511,-3.9992 -18.69088,6.0951 c -10.27998,3.3523 -18.68948,6.24138 -18.68776,6.42016 10e-4,0.17879 6.94984,1.44656 15.44027,2.81729 8.49043,1.37072 21.28824,3.45702 28.43958,4.63622 7.15134,1.1792 13.79934,2.17872 14.77335,2.22116 0.974,0.0424 3.9803,-0.80051 6.68067,-1.87321 z m -13.3275,-1.59935 -1.6253,-0.90317 1.6253,-0.62565 c 6.37066,-2.45237 14.03963,-5.52937 17.99065,-7.21834 4.49102,-1.91979 6.3394,-2.09243 9.96458,-0.93064 1.32895,0.4259 0.61642,0.78671 -7.47639,3.78588 -6.62163,2.45395 -8.89797,3.37413 -13.83248,5.59166 -3.26744,1.46836 -4.44827,1.5217 -6.64636,0.30026 z m -34.75411,-5.50767 c -0.23606,-0.38193 -0.99704,-0.69444 -1.69107,-0.69444 -1.57153,0 -1.64869,-1.00568 -0.12416,-1.61832 0.62574,-0.25145 6.47091,-2.33634 12.98926,-4.63308 11.40816,-4.01967 11.96308,-4.14781 14.83248,-3.42528 1.63952,0.41283 2.74252,0.97211 2.45113,1.24285 -0.29139,0.27074 -6.23462,2.38077 -13.20718,4.68896 -6.97255,2.30819 -13.15975,4.40754 -13.74932,4.66523 -0.58957,0.25769 -1.26509,0.15603 -1.50114,-0.22592 z m 27.44024,-1.85566 c -2.1862,-0.2756 -2.43515,-2.08938 -0.28678,-2.08938 1.93163,0 4.29616,1.60996 2.97849,2.02801 -0.49713,0.1577 -1.7084,0.18533 -2.69171,0.0614 z m 65.84091,5.34469 c 1.46858,-3.86266 0.14357,-8.73432 -2.37558,-8.73432 -1.00279,0 -2.84148,3.28183 -2.84148,5.07168 0,0.67953 0.32117,2.15683 0.71372,3.2829 0.92974,2.66707 3.5497,2.888 4.50334,0.37974 z m -30.8701,-15.27879 c 0.23568,-0.38135 0.32561,-0.79629 0.19982,-0.92208 -0.58806,-0.58805 -11.05343,-1.63486 -12.56117,-1.25644 -2.40675,0.60405 -1.58608,1.07635 3.42215,1.96944 5.64597,1.00682 8.40626,1.07138 8.9392,0.20908 z m 10.53991,-0.71616 c 2.42054,-0.60949 2.76612,-0.85715 1.75066,-1.25455 -2.18842,-0.8564 -6.14115,-0.67599 -6.14115,0.28031 0,0.82969 0.58437,1.73366 1.12071,1.73366 0.13964,0 1.61103,-0.34174 3.26978,-0.75942 z m -14.79244,-25.24545 c 0,-13.86926 -0.22984,-21.45401 -0.65012,-21.45401 -0.42028,0 -0.65012,7.58475 -0.65012,21.45401 0,13.86926 0.22984,21.45401 0.65012,21.45401 0.42028,0 0.65012,-7.58475 0.65012,-21.45401 z m 9.11166,13.49002 c 0.0104,-8.3177 0.14286,-8.90902 2.26547,-10.11267 1.23684,-0.70137 1.221,-0.7393 -0.32506,-0.77777 -1.85778,-0.0462 -3.15842,-0.93243 -4.74322,-3.23183 -1.06203,-1.54091 -1.10787,-1.11719 -1.10787,10.23942 l 0,11.84684 1.95036,0 1.95037,0 0.01,-7.96399 z m -13.01237,-14.14012 c 0,-21.0206 -0.0263,-21.45402 -1.30025,-21.45402 -1.2735,0 -1.30024,0.43342 -1.30024,21.07478 0,21.0782 0.0472,21.56448 2.11289,21.78192 0.26818,0.0282 0.4876,-9.60298 0.4876,-21.40268 z m 18.2034,18.13286 c 0,-1.15761 -2.24802,-0.3043 -2.48855,0.94461 -0.19531,1.01417 -0.033,1.07982 1.13025,0.45725 0.74706,-0.39981 1.3583,-1.03065 1.3583,-1.40186 z m -1.02835,-2.92456 c 0.5656,-0.21704 1.02835,-0.83345 1.02835,-1.3698 0,-0.62214 -0.37229,-0.83232 -1.02835,-0.58056 -0.56559,0.21704 -1.1507,0.39461 -1.30025,0.39461 -0.14953,0 -0.27188,0.43883 -0.27188,0.97519 0,1.09418 0.11906,1.13816 1.57213,0.58056 z m 0.78701,-5.2644 c -0.53587,-0.53587 -2.35914,0.32249 -2.35914,1.11064 0,0.4808 0.41572,0.47091 1.35592,-0.0323 0.74575,-0.39912 1.19721,-0.88438 1.00322,-1.07837 z m -0.0569,-2.83581 c 0.23569,-0.38136 0.29483,-0.82708 0.13141,-0.99049 -0.45346,-0.45345 -2.4336,0.44427 -2.4336,1.10329 0,0.81382 1.78348,0.72642 2.30216,-0.1128 z m -7.72298,-17.34845 -0.94502,-3.08713 -0.0677,4.53298 c -0.0639,4.2807 -0.0113,4.45251 0.94501,3.08713 0.90081,-1.28608 0.90828,-1.78696 0.0677,-4.53298 z m 5.42079,0.49532 c 0,-0.35384 -2.34044,-9.00534 -5.20097,-19.22555 -2.86054,-10.22021 -5.20098,-18.7277 -5.20098,-18.90553 0,-0.17782 -0.65825,-0.22288 -1.46277,-0.10013 -0.80452,0.12275 -1.42141,0.50879 -1.37086,0.85787 0.147,1.01491 8.6671,31.52674 9.75345,34.92859 0.72461,2.2691 1.31712,3.08809 2.23414,3.08809 0.6864,0 1.24799,-0.28951 1.24799,-0.64334 z m 1.95036,-6.83306 0,-5.52604 -1.70112,0 c -1.30864,0 -1.62728,0.2625 -1.38105,1.13771 0.17604,0.62575 0.85646,3.11247 1.51203,5.52604 0.65556,2.41357 1.27703,4.38832 1.38104,4.38832 0.10401,0 0.1891,-2.48672 0.1891,-5.52603 z m -11.55749,-7.83781 c 0.19878,-0.19878 0.0643,-1.32957 -0.29889,-2.51286 -0.64948,-2.1162 -0.73621,-2.15784 -5.29149,-2.5409 -2.54716,-0.21418 -5.28945,-0.58029 -6.09398,-0.81356 -1.32176,-0.38325 -1.46277,-0.20181 -1.46277,1.88218 0,2.29297 0.0235,2.31188 4.06326,3.26905 4.23528,1.00348 8.46318,1.33678 9.08387,0.71609 z m 10.69868,-1.71956 c 1.28586,-0.46496 2.19192,-1.25377 2.24033,-1.95036 0.0447,-0.64331 0.11783,-1.60848 0.16252,-2.14483 0.10103,-1.21223 -0.50006,-1.25443 -3.98199,-0.27955 -2.98774,0.83651 -3.07972,0.98721 -2.12899,3.48784 0.72818,1.91524 0.81012,1.93484 3.70813,0.8869 z m -16.69447,-13.19689 c 0,-4.76756 -0.0361,-4.87591 -1.6253,-4.87591 -1.577,0 -1.62531,0.13363 -1.62531,4.49667 0,4.41408 0.30694,5.06923 2.43795,5.20382 0.58246,0.0368 0.81266,-1.32989 0.81266,-4.82458 z m 13.32749,-2.28433 0,-6.81737 -1.78783,-0.20571 -1.78783,-0.20572 0,5.5269 c 0,6.35334 0.75637,9.06222 2.43984,8.73801 0.9949,-0.1916 1.13582,-1.06458 1.13582,-7.03611 z m 33.94447,-5.27416 c 5.45048,-2.00245 7.98838,-4.0744 7.98838,-6.52177 0,-1.63938 -0.19896,-1.90395 -1.13772,-1.51284 -0.62574,0.26069 -3.55128,0.7879 -6.50121,1.17159 l -5.3635,0.69762 0,3.77386 c 0,2.07563 0.28158,3.77387 0.62573,3.77387 0.34416,0 2.3189,-0.62205 4.38832,-1.38233 z m -16.06612,-0.56803 c 0,-1.11004 -0.43341,-1.30024 -2.96284,-1.30024 -1.62957,0 -4.999,-0.33627 -7.48764,-0.74725 -4.44796,-0.73457 -6.00137,-0.49176 -4.76482,0.7448 0.62785,0.62784 10.07536,2.41269 13.42746,2.53676 1.37648,0.051 1.78784,-0.233 1.78784,-1.23407 z m -36.40681,-2.31817 c 0,-0.20229 -0.30285,-0.93367 -0.67299,-1.6253 -0.86389,-1.61419 -4.70617,-1.8282 -4.0921,-0.22792 0.53106,1.3839 4.76509,3.03058 4.76509,1.85322 z m 5.70845,-0.11979 c -0.13804,-0.26817 -0.75145,-1.58467 -1.36314,-2.92555 -0.85096,-1.86538 -1.49182,-2.43795 -2.72873,-2.43795 -1.90904,0 -1.98112,0.49168 -0.52099,3.55361 0.8819,1.84937 1.46308,2.29748 2.97973,2.29748 1.03626,0 1.77118,-0.21942 1.63313,-0.48759 z m 7.75069,-0.97518 c 3.99561,-4.38297 3.26403,-15.05154 -1.1958,-17.43837 -4.4719,-2.39328 -8.90488,7.45237 -6.36894,14.14544 0.97802,2.58129 3.18759,4.7557 4.8326,4.7557 0.76926,0 1.99873,-0.65825 2.73214,-1.46277 z m 25.60652,-0.37853 c -0.35062,-0.65515 -1.0923,-1.56863 -1.64817,-2.02997 -1.43385,-1.18998 -1.38171,0.43336 0.0653,2.03225 1.39089,1.53692 2.40588,1.53546 1.58291,-0.003 z m -60.54083,-16.99686 c -0.0293,-9.64585 -0.29519,-17.68741 -0.59085,-17.87014 -0.29565,-0.18273 -3.50187,-0.52649 -7.12492,-0.76392 l -6.58738,-0.4317 0.17334,17.48487 0.17333,17.48487 3.25061,0.75456 c 1.78783,0.41501 4.94003,0.78265 7.00489,0.81697 l 3.75427,0.0624 -0.0533,-17.53792 z m -8.91804,14.45814 -3.41313,-0.23878 0,-15.32789 0,-15.32788 4.70048,0.46317 c 2.58527,0.25475 4.92571,0.60237 5.20098,0.7725 0.27526,0.17012 0.50048,7.0208 0.50048,15.22374 l 0,14.91443 -1.78783,-0.12026 c -0.98331,-0.0661 -3.32375,-0.22771 -5.20098,-0.35903 z m 23.24811,0.31676 c -1.92201,-4.34978 -2.26826,-8.83466 -1.01493,-13.14597 0.5971,-2.05393 0.94408,-3.87596 0.77108,-4.04896 -0.82473,-0.82473 -3.00549,0.74889 -4.04127,2.91616 -3.27257,6.84757 -0.64834,17.04179 4.38697,17.04179 1.04264,0 1.03569,-0.18859 -0.10185,-2.76302 z m 50.81489,-1.47735 c -0.66955,-1.46948 -3.09852,-2.7413 -3.8329,-2.00692 -0.20495,0.20495 0.45401,1.56551 1.46436,3.02344 1.56286,2.2552 1.9276,2.48892 2.44403,1.56611 0.38542,-0.6887 0.35786,-1.63152 -0.0755,-2.58263 z m 14.0578,-2.50363 3.70889,-0.7324 0.17429,-15.44039 c 0.13702,-12.13759 -0.002,-15.43542 -0.65012,-15.41714 -0.45343,0.0128 -3.89624,0.54783 -7.65069,1.18898 l -6.82628,1.16574 -0.1866,2.87428 -0.18659,2.87427 1.16178,-2.27467 c 2.17342,-4.25541 7.77262,-5.05825 10.56037,-1.51421 3.96088,5.03544 -1.38106,11.74987 -7.44823,9.36189 -0.71513,-0.28147 -1.95849,-0.21395 -2.76302,0.15005 -1.41687,0.64104 -1.46277,0.95052 -1.46277,9.86316 l 0,9.20137 3.93004,-0.28427 c 2.16151,-0.15635 5.59903,-0.61385 7.63893,-1.01666 z m -54.477,-5.28325 c 0,-0.53635 -0.29256,-0.97518 -0.65012,-0.97518 -0.35757,0 -0.65012,-0.73139 -0.65012,-1.62531 0,-0.89391 -0.26126,-1.6253 -0.58057,-1.6253 -0.75135,0 -1.3698,1.6384 -1.3698,3.62884 0,1.24353 0.33972,1.57213 1.62531,1.57213 1.0113,0 1.6253,-0.3684 1.6253,-0.97518 z m 31.5309,-7.78598 c 6.79377,-3.11699 12.5607,-5.79569 12.81539,-5.95266 0.5757,-0.35482 -0.84172,-3.59083 -1.46467,-3.34389 -5.16199,2.04623 -28.16215,13.35843 -28.39515,13.96563 -0.1776,0.46281 -0.15194,1.287 0.057,1.83152 0.44974,1.17201 -0.66807,1.59976 16.98742,-6.5006 z m -36.34185,4.37284 c 0.22813,-0.98331 0.82556,-2.44608 1.32761,-3.25061 0.88127,-1.4122 0.83415,-1.46277 -1.36259,-1.46277 -2.45347,0 -3.78278,1.35992 -4.60729,4.71338 -0.41796,1.69995 -0.32484,1.78784 1.89396,1.78784 2.01168,0 2.39072,-0.24658 2.74831,-1.78784 z m 6.76132,-0.70422 c 0,-2.06771 -1.45918,-8.85816 -2.042,-9.50269 -0.35015,-0.38722 -0.82359,-0.35252 -1.26913,0.093 -0.6515,0.65149 -0.12602,5.07469 1.12428,9.46376 0.42976,1.50863 2.18685,1.46517 2.18685,-0.0541 z m 3.2506,-2.45341 c 0,-0.14052 -0.60237,-0.25551 -1.33861,-0.25551 -0.73623,0 -1.1657,0.27978 -0.95436,0.62173 0.34692,0.56132 2.29297,0.2505 2.29297,-0.36622 z m -6.47337,-10.65745 c 1.21301,0 3.22277,-2.93286 3.22277,-4.70299 0,-2.51621 -2.60894,-5.04884 -5.20098,-5.04884 -2.4202,0 -5.20097,2.51383 -5.20097,4.70171 0,2.88163 3.45029,6.08722 5.74174,5.33453 0.4762,-0.15643 1.12305,-0.28441 1.43744,-0.28441 z m 52.30695,-3.56677 c 0,-1.39152 -2.00943,-2.16025 -3.01591,-1.15377 -0.33131,0.33131 -0.40928,1.1056 -0.17326,1.72065 0.60215,1.5692 3.18917,1.10936 3.18917,-0.56688 z m 5.44894,-7.76272 c 0.39996,-0.24719 0.72722,-2.05915 0.72722,-4.02657 l 0,-3.57714 -2.76302,0.34176 c -1.51966,0.18797 -4.44521,0.51951 -6.50122,0.73674 l -3.7382,0.39497 0,3.61907 0,3.61906 5.774,-0.32922 c 3.17569,-0.18107 6.10124,-0.53147 6.50122,-0.77867 z m -51.60758,-4.21381 c 14.30073,-2.02779 22.25262,-2.90317 22.52475,-2.47961 0.64182,0.99898 12.92428,-0.76959 13.36758,-1.92482 0.19253,-0.50174 0.16683,-1.09547 -0.0571,-1.31941 -0.22394,-0.22394 -13.35191,1.40429 -29.17327,3.61827 -26.56663,3.71764 -29.64845,4.02432 -40.30578,4.01087 -7.26939,-0.009 -11.53965,0.22602 -11.53965,0.63556 0,0.41006 4.26106,0.63965 11.53965,0.62178 10.20683,-0.0251 14.0927,-0.39037 33.64379,-3.16264 z m 15.60292,-12.71818 c 20.02375,-2.71739 36.77251,-5.06746 37.21946,-5.22238 0.97391,-0.33755 1.09721,-2.27283 0.14482,-2.27283 -0.36731,0 -17.11607,2.21342 -37.21946,4.91871 -40.33177,5.4274 -51.04216,6.23732 -64.50686,4.87798 -4.2908,-0.43317 -8.45971,-0.94475 -9.26424,-1.13683 -1.15431,-0.2756 -1.46277,-0.0686 -1.46277,0.98164 0,1.071 0.54917,1.41325 2.8123,1.75262 8.08698,1.21272 13.53475,1.5019 24.16775,1.28286 10.09149,-0.20788 16.71327,-0.92111 48.109,-5.18177 z m -41.93284,-12.59926 c 1.38841,-0.56776 1.05677,-0.67823 -2.27543,-0.75793 -2.1454,-0.0513 -6.96365,-0.22187 -10.70722,-0.379 -6.86635,-0.2882 -7.90347,0.22701 -3.27039,1.62462 2.67744,0.80768 13.9095,0.47065 16.25304,-0.48769 z m -6.72356,125.58762 c -0.23528,-0.23528 -0.42778,-3.24519 -0.42778,-6.6887 l 0,-6.26092 -2.60049,-2.53931 c -2.44282,-2.38534 -2.60048,-2.7678 -2.60048,-6.3081 0,-3.33537 -0.14954,-3.76878 -1.30025,-3.76878 -1.22726,0 -1.30024,-0.43342 -1.30024,-7.7216 l 0,-7.72161 2.92555,0.32975 c 2.61141,0.29435 2.92554,0.18861 2.92554,-0.98471 0,-1.05589 -0.60745,-1.42493 -3.08808,-1.87606 l -3.08807,-0.56161 -0.1962,-3.7754 c -0.19569,-3.76583 -0.19239,-3.77332 1.30025,-2.95287 1.72359,0.9474 12.20631,1.16468 16.97237,0.35179 l 3.12361,-0.53276 -0.19807,3.45831 -0.19807,3.4583 -3.41314,0.60623 c -2.64312,0.46947 -3.41314,0.8728 -3.41314,1.78783 0,0.917 0.50957,1.18161 2.27543,1.18161 l 2.27543,0 0,7.43118 c 0,7.21144 -0.0433,7.43733 -1.46278,7.63893 -1.3033,0.1851 -1.48448,0.63059 -1.66193,4.08622 -0.16958,3.30245 -0.53166,4.28425 -2.43796,6.61063 -2.15989,2.63586 -2.23879,2.92599 -2.23879,8.2317 0,3.80762 -0.26842,5.72231 -0.87247,6.22363 -0.47986,0.39825 -1.06497,0.53159 -1.30024,0.29632 z m 3.63548,-19.00352 c 0.26817,-0.0336 0.48759,-1.39287 0.48759,-3.0206 l 0,-2.95952 -3.41314,0.1965 c -3.34992,0.19287 -3.41699,0.23678 -3.62147,2.37129 -0.11459,1.19613 -0.0787,2.51263 0.0797,2.92555 0.23373,0.60923 3.51709,0.85636 6.46732,0.48678 z m -1.46277,-9.74335 c 0,-1.88907 -0.92571,-2.72253 -2.43796,-2.19503 -0.44696,0.15591 -0.81265,1.13675 -0.81265,2.17965 0,1.58919 0.26314,1.89619 1.6253,1.89619 1.35913,0 1.62531,-0.30803 1.62531,-1.88081 z m 5.85109,-0.75804 c 0,-1.26614 -0.32941,-1.912 -0.97518,-1.912 -0.98325,0 -1.42463,3.23458 -0.55945,4.09977 0.78679,0.78677 1.53463,-0.27936 1.53463,-2.18777 z m -0.88444,-3.21224 c 0.844,0 1.53456,-0.22775 1.53456,-0.50611 0,-0.27834 -3.36433,-0.49776 -7.47631,-0.48758 -4.11197,0.0102 -7.47635,0.22189 -7.4764,0.47048 -1.1e-4,0.60148 5.4583,1.06256 9.02982,0.76276 1.56957,-0.13175 3.54431,-0.23955 4.38833,-0.23955 z m -4.96665,-4.55085 c 0,-0.95352 -0.43342,-1.30025 -1.62531,-1.30025 -1.19189,0 -1.6253,0.34673 -1.6253,1.30025 0,0.95351 0.43341,1.30024 1.6253,1.30024 1.19189,0 1.62531,-0.34673 1.62531,-1.30024 z m 5.85109,0.32506 c 0,-0.53635 -0.29256,-0.97519 -0.65012,-0.97519 -0.35757,0 -0.65012,0.43884 -0.65012,0.97519 0,0.53635 0.29255,0.97518 0.65012,0.97518 0.35756,0 0.65012,-0.43883 0.65012,-0.97518 z"
       id="path4305"
       inkscape:connector-curvature="0"
       sodipodi:nodetypes="sssssssscssssssscccccscssscccssscccssscsssssssssssscssssssssssssssssscssssssccsscsssscssscsscsssscsscscssssscsssssccssssssccssscsssssssssscscsscscssscscsscccssssscssssscsssscscsssssssccsssssscssssssssssssssssssssssssssssssssssssssssssssssscssssssssssscssccssssscsscssssccscccssssscsscccscssccssssssssscscssssscssssssssssssssssscssssssccsscsssssssssscscsscccccssscssscssssssscsccccssccscscssssscsssscsssssscsssssscssssssscsscccssssscscssssssscsssssssssssssssscsscccsscccsscccscccsssccssssssssssssscscscccssssscssssssssscssscccssssssssssssscssssssssssssscsscccssssccsssssssssssssssssssssscsssscssscssscccssscssssssscscssscsssssssssssssssssssssssss" />
  </g>
</svg>
